<?xml version="1.0" encoding="UTF-8"?>
<svg width="182px" height="188px" viewBox="0 0 182 188" version="1.1" xmlns="http://www.w3.org/2000/svg" xmlns:xlink="http://www.w3.org/1999/xlink">
    <title>log</title>
    <defs>
        <path d="M18.2115419,156.685535 L0,62.9905317 L23.7352804,26.6985584 C29.519635,10.8061808 43.8764122,4.76253779 66.8056119,8.56762929 C71.914977,9.78226937 98.2198191,16.5005247 113.812803,0 C111.20658,6.51915888 107.109437,20.8507847 87.5338896,27.7082714 C83.2186758,28.6821759 60.4011738,31.0675492 64.690515,39.7939168 C66.8056119,46.1353727 69.1409765,54.2195319 80.6079715,62.9905317 C87.5338896,67.7002674 119.292702,87.4711214 136.946581,72.932831 C139.616154,70.1199531 143.71637,67.9988089 140.861058,47.8535402 C139.616154,43.7108778 140.653062,34.4436863 143.177063,31.5715815 C143.177063,34.8187379 143.552302,38.5174366 144.302781,42.6676777 C149.638342,49.6279851 153.05025,56.7581936 154.538506,64.0583033 C155.323386,67.7980674 158.330882,98.0446778 114.733304,106.778901 C118.114573,110.788477 119.778407,114.577184 139.675395,129.019174 C139.675395,131.827227 138.609385,137.11455 129.261842,148.582367 C127.59306,149.228943 90.5762932,151.929999 18.2115419,156.685535 Z" id="path-1"></path>
        <linearGradient x1="-1.08545394e-07%" y1="119.040376%" x2="20.3978837%" y2="35.5213961%" id="linearGradient-3">
            <stop stop-color="#2AA253" offset="0%"></stop>
            <stop stop-color="#0F4922" offset="100%"></stop>
        </linearGradient>
        <path d="M18.2115419,156.685535 L0,62.9905317 L23.7352804,26.6985584 C29.519635,10.8061808 43.8764122,4.76253779 66.8056119,8.56762929 C71.914977,9.78226937 98.2198191,16.5005247 113.812803,0 C111.20658,6.51915888 107.109437,20.8507847 87.5338896,27.7082714 C83.2186758,28.6821759 60.4011738,31.0675492 64.690515,39.7939168 C66.8056119,46.1353727 69.1409765,54.2195319 80.6079715,62.9905317 C87.5338896,67.7002674 119.292702,87.4711214 136.946581,72.932831 C139.616154,70.1199531 143.71637,67.9988089 140.861058,47.8535402 C139.616154,43.7108778 140.653062,34.4436863 143.177063,31.5715815 C143.177063,34.8187379 143.552302,38.5174366 144.302781,42.6676777 C149.638342,49.6279851 153.05025,56.7581936 154.538506,64.0583033 C155.323386,67.7980674 158.330882,98.0446778 114.733304,106.778901 C118.114573,110.788477 119.778407,114.577184 139.675395,129.019174 C139.675395,131.827227 138.609385,137.11455 129.261842,148.582367 C127.59306,149.228943 90.5762932,151.929999 18.2115419,156.685535 Z" id="path-4"></path>
        <linearGradient x1="29.1015748%" y1="8.86288909e-13%" x2="130.105676%" y2="143.357855%" id="linearGradient-6">
            <stop stop-color="#C7E682" offset="0%"></stop>
            <stop stop-color="#28BF64" offset="100%"></stop>
        </linearGradient>
    </defs>
    <g id="log" stroke="none" fill="none" fill-rule="evenodd" stroke-width="1">
        <g id="Group" transform="translate(2.6771, 7.1372)">
            <g transform="translate(88.7532, 89.4893) rotate(-9) translate(-88.7532, -89.4893)translate(11.3064, 11.1465)" id="Path">
                <g>
                    <g id="Mask" fill="#122E0E" fill-rule="nonzero" stroke="#397512" stroke-width="6.01528">
                        <path d="M18.2115419,156.685535 L0,62.9905317 L23.7352804,26.6985584 C29.519635,10.8061808 43.8764122,4.76253779 66.8056119,8.56762929 C71.914977,9.78226937 98.2198191,16.5005247 113.812803,0 C111.20658,6.51915888 107.109437,20.8507847 87.5338896,27.7082714 C83.2186758,28.6821759 60.4011738,31.0675492 64.690515,39.7939168 C66.8056119,46.1353727 69.1409765,54.2195319 80.6079715,62.9905317 C87.5338896,67.7002674 119.292702,87.4711214 136.946581,72.932831 C139.616154,70.1199531 143.71637,67.9988089 140.861058,47.8535402 C139.616154,43.7108778 140.653062,34.4436863 143.177063,31.5715815 C143.177063,34.8187379 143.552302,38.5174366 144.302781,42.6676777 C149.638342,49.6279851 153.05025,56.7581936 154.538506,64.0583033 C155.323386,67.7980674 158.330882,98.0446778 114.733304,106.778901 C118.114573,110.788477 119.778407,114.577184 139.675395,129.019174 C139.675395,131.827227 138.609385,137.11455 129.261842,148.582367 C127.59306,149.228943 90.5762932,151.929999 18.2115419,156.685535 Z" id="path-1"></path>
                    </g>
                    <g id="Path-3-Clipped">
                        <mask id="mask-2" fill="white">
                            <use xlink:href="#path-1"></use>
                        </mask>
                        <g id="path-1"></g>
                        <path d="M20.9533688,153.088469 L38.7512154,-9.38740303 L115.296933,-27.6237505 L201.91562,31.8339514 L196.716464,73.0548357 C173.786912,84.1645185 154.434711,92.96388 138.659863,99.45292 C122.885015,105.94196 114.909495,108.383954 114.733304,106.778901 L20.9533688,153.088469 Z" id="Path-3" fill="url(#linearGradient-3)" fill-rule="nonzero" mask="url(#mask-2)"></path>
                    </g>
                    <g id="Path-4-Clipped">
                        <mask id="mask-5" fill="white">
                            <use xlink:href="#path-4"></use>
                        </mask>
                        <g id="path-1"></g>
                        <polygon id="Path-4" fill-opacity="0.584626311" fill="#07190D" fill-rule="nonzero" mask="url(#mask-5)" points="3.15897981 63.9174789 109.59426 147.348563 20.9533688 153.088469 4.82201805 72.0903679"></polygon>
                    </g>
                </g>
                <path d="M73.5370224,83.0737106 C74.5084462,83.8272858 75.0137402,84.2466239 75.0529048,84.3317245 C79.5039809,94.0034605 84.9681785,102.039307 91.4454979,108.439263 C91.7501253,108.861043 92.117529,109.307612 92.5477089,109.77897 L88.2364681,109.368214 C76.375183,110.504801 71.0174178,105.945939 72.1631726,95.691627 C72.1645541,93.4180399 72.8104553,90.6600354 74.1008759,87.4176135 L73.5370224,83.0737106 Z" stroke="#149750" stroke-width="1.62777489" fill="url(#linearGradient-6)" fill-rule="nonzero" transform="translate(82.2797, 96.4263) rotate(-1) translate(-82.2797, -96.4263)"></path>
            </g>
        </g>
    </g>
</svg>