<?xml version="1.0" encoding="UTF-8"?>
<svg width="846px" height="874px" viewBox="0 0 846 874"
     xmlns="http://www.w3.org/2000/svg"
     xmlns:xlink="http://www.w3.org/1999/xlink">
    <defs>
        <path d="M84.6536508,728.421053 L0,292.838961 L110.32993,124.119894 C137.217644,50.2372449 203.952993,22.1407342 310.535976,39.8303617 C334.286102,45.4771459 456.560258,76.7098859 529.04193,0 C516.927289,30.3071535 497.882327,96.933967 406.8883,128.813985 C386.829669,133.341605 280.765896,144.431053 300.704262,184.999379 C310.535976,214.480403 321.391572,252.063143 374.694197,292.838961 C406.8883,314.734222 554.514426,406.64766 636.575866,339.060076 C648.984981,325.983186 668.044225,316.122122 654.77173,222.468054 C648.984981,203.209081 653.804892,160.126499 665.537335,146.774267 C665.537335,161.87009 667.281579,179.065104 670.770068,198.35931 C695.571633,230.717335 711.431383,263.865219 718.349317,297.802963 C721.997716,315.188888 735.977615,455.803449 533.320744,496.408296 C549.038068,515.048556 556.772155,532.662014 649.260352,599.801904 C649.260352,612.856365 644.305165,637.436791 600.854498,690.749938 C593.097411,693.755829 421.030462,706.312867 84.6536508,728.421053 Z" />
    </defs>
    <g fill="#28BF64">
        <use xlink:href="#path-1" />
    </g>
</svg>
