<?xml version="1.0" encoding="UTF-8"?>
<svg width="1655px" height="1655px" viewBox="0 0 1655 1655" version="1.1" xmlns="http://www.w3.org/2000/svg" xmlns:xlink="http://www.w3.org/1999/xlink">
    <title>Frame 63</title>
    <defs>
        <path d="M0,0 L1655,0 L1655,1655 L0,1655 L0,0 Z" id="path-1"></path>
    </defs>
    <g id="Frame-63" stroke="none" fill="none" xlink:href="#path-1" fill-rule="evenodd" stroke-width="1">
        <g id="Group" transform="translate(274, 368)">
            <path d="M141.878949,918 C131.303998,918 118.117779,917.150157 102.320291,915.450472 C16.1986441,893.11766 -15.5574073,821.402841 7.05213667,700.306014 C17.2010924,654.891371 44.3672196,480.747448 272.685383,259.835311 C311.727522,222.515423 479.525368,34.5157332 753.200427,2.39675803 C803.651807,2.39675803 1078.19373,-47.7187116 1106,310.377522 C1106,384.097138 1089.24956,667.546927 866.219252,784.72751 C819.508716,796.342884 753.200427,809.563839 753.200427,706.953906 C726.026914,745.534503 604.636618,899.779558 485.359812,847.945153 C460.158206,833.751443 415.183436,817.859031 437.670821,700.306014 C391.547886,770.56683 339.528321,876.703898 151.879252,915.450472 C148.087759,918 148.087759,918 141.878949,918 Z" id="Path" fill="#FFFFFF"></path>
            <ellipse id="Oval" fill="#000000" cx="728.798221" cy="302.87386" rx="62.0344983" ry="78.9529978"></ellipse>
            <ellipse id="Oval" fill="#000000" cx="911.14205" cy="302.87386" rx="62.0344983" ry="78.9529978"></ellipse>
        </g>
    </g>
</svg>