<?xml version="1.0" encoding="UTF-8"?>
<svg width="702px" height="726px" viewBox="0 0 702 726" version="1.1" xmlns="http://www.w3.org/2000/svg" xmlns:xlink="http://www.w3.org/1999/xlink">
    <title>Group</title>
    <defs>
        <linearGradient x1="1.14938688%" y1="9.98899877%" x2="63.8851528%" y2="100%" id="linearGradient-1">
            <stop stop-color="#AF3FFF" offset="0%"></stop>
            <stop stop-color="#6600AF" offset="100%"></stop>
        </linearGradient>
        <path d="M71.1325816,612.076023 L0,246.066072 L92.7077881,104.295189 C115.300937,42.2132405 171.377168,18.6043669 260.93648,33.4685678 C280.893183,38.2134351 383.637439,64.4576125 444.542177,0 C434.362514,25.4664276 418.359456,81.4514584 341.899197,108.239529 C325.044374,112.043987 235.921343,121.362204 252.675109,155.450867 C260.93648,180.223117 270.058196,211.803058 314.847207,246.066072 C341.899197,264.464173 465.94615,341.696992 534.900554,284.904647 C545.327658,273.916427 561.342717,265.630394 550.190134,186.934962 C545.327658,170.752075 549.377722,134.550739 559.236233,123.331155 C559.236233,136.015839 560.701882,150.464428 563.633182,166.67692 C584.473386,193.866649 597.799981,221.72008 603.612968,250.237212 C606.678636,264.846218 618.425635,383.001509 448.137569,417.12086 C461.344487,432.783856 467.843269,447.584053 545.559046,504.000211 C545.559046,514.969585 541.395312,535.62397 504.884682,580.421823 C498.366575,582.947606 353.782541,593.499006 71.1325816,612.076023 Z" id="path-2"></path>
        <linearGradient x1="27.0350843%" y1="17.6588301%" x2="40.0982456%" y2="80.8629815%" id="linearGradient-4">
            <stop stop-color="#992CE7" offset="0%"></stop>
            <stop stop-color="#6600AF" offset="100%"></stop>
        </linearGradient>
    </defs>
    <g id="bullions" stroke="none" stroke-width="1" fill="none" fill-rule="evenodd">
        <g id="Frame-57" transform="translate(-1797, -4123)">
            <g id="Group" transform="translate(2149.8878, 4496.5813) rotate(-8) translate(-2149.8878, -4496.5813)translate(1847.3878, 4190.0813)">
                <g id="Path">
                    <mask id="mask-3" fill="white">
                        <use xlink:href="#path-2"></use>
                    </mask>
                    <use id="Mask" stroke="url(#linearGradient-1)" stroke-width="11.7815789" fill="#49047B" xlink:href="#path-2"></use>
                    <polygon id="Path-3" fill="#6600AF" mask="url(#mask-3)" points="67.4253031 616.23623 151.358627 -36.6709301 450.339051 -107.909357 788.663553 124.356076 768.356135 285.381246"></polygon>
                    <polygon id="Path-4" fill-opacity="0.615630463" fill="#0A1E0A" mask="url(#mask-3)" points="-1.5298509e-12 251.740369 504.539043 631.190649 -1.5298509e-12 697.697638 -37.1491228 273.993739"></polygon>
                </g>
                <path d="M287.407668,324.993381 C291.34116,327.939626 293.387266,329.579021 293.545986,329.911564 C311.58459,367.705327 333.719574,399.110946 359.950936,424.128423 C361.184891,425.776866 362.67298,427.5223 364.415205,429.364726 L346.965331,427.749498 C298.962005,432.160424 277.266336,414.337967 281.878325,374.282126 C281.878325,365.400319 284.485694,354.627712 289.700433,341.964305 L287.407668,324.993381 Z" id="Path" stroke="#3C0068" stroke-width="6.36019128" fill="url(#linearGradient-4)" transform="translate(322.8436, 377.1791) rotate(-1) translate(-322.8436, -377.1791)"></path>
            </g>
        </g>
    </g>
</svg>